<?xml version="1.0" standalone="no"?>
<!DOCTYPE svg PUBLIC "-//W3C//DTD SVG 20010904//EN"
 "http://www.w3.org/TR/2001/REC-SVG-20010904/DTD/svg10.dtd">
<svg version="1.0" xmlns="http://www.w3.org/2000/svg"
 width="1080.000000pt" height="1080.000000pt" viewBox="0 0 1080.000000 1080.000000"
 preserveAspectRatio="xMidYMid meet">

<g transform="translate(0.000000,1080.000000) scale(0.100000,-0.100000)"
fill="#000000" stroke="none">
<path d="M2055 8184 c-11 -3 -36 -11 -55 -18 -19 -7 -57 -17 -85 -21 -27 -4
-90 -23 -139 -42 -308 -120 -562 -303 -764 -550 -81 -99 -180 -247 -207 -306
-13 -30 -28 -58 -34 -61 -5 -4 -12 -19 -16 -36 -3 -16 -14 -39 -23 -52 -16
-22 -54 -130 -101 -293 -46 -157 -77 -446 -67 -621 9 -164 42 -392 65 -459 12
-33 21 -70 21 -84 0 -31 85 -232 157 -371 57 -111 143 -237 242 -356 70 -84
267 -260 337 -302 27 -16 74 -44 104 -64 82 -51 306 -145 402 -167 160 -37
258 -44 497 -38 239 6 253 8 466 73 82 26 265 119 373 191 158 106 356 301
470 463 l32 45 -26 64 c-14 35 -31 95 -36 133 -6 37 -15 68 -20 68 -6 0 -60
-48 -121 -106 -165 -157 -258 -228 -351 -268 -260 -111 -491 -78 -675 98 -92
87 -132 158 -176 305 -23 78 -26 110 -35 400 -6 174 -14 525 -19 781 -7 441
-9 467 -29 512 -33 75 -112 112 -268 126 l-79 7 0 55 0 55 355 3 c341 3 442
-1 466 -16 9 -5 15 -245 23 -852 6 -465 16 -872 21 -905 14 -79 63 -178 102
-206 67 -48 137 -69 234 -69 103 0 126 7 267 76 80 39 116 65 195 139 l97 92
0 714 0 714 -25 50 c-31 62 -97 109 -178 125 -31 6 -79 17 -107 23 l-50 12 -3
46 -3 46 53 6 c29 4 107 7 173 7 66 0 143 3 172 6 l52 7 -15 35 c-32 77 -186
258 -324 379 -143 127 -362 261 -495 303 -22 7 -62 23 -90 35 -27 12 -77 27
-110 34 -33 6 -80 16 -105 21 -48 11 -511 23 -545 14z"/>
<path d="M4937 8033 l-27 -4 2 -1452 3 -1452 80 -3 c104 -4 105 -3 105 152 0
67 5 128 10 136 10 16 11 15 174 -160 58 -61 189 -143 259 -161 30 -7 119 -10
259 -7 194 4 218 6 273 28 173 67 353 253 451 466 103 222 131 686 60 997 -81
351 -319 618 -602 676 -98 20 -283 24 -369 8 -161 -29 -262 -98 -431 -292 -34
-38 -66 -66 -70 -62 -5 5 -11 259 -14 565 l-5 557 -30 6 c-34 7 -86 8 -128 2z
m940 -979 c110 -25 201 -74 280 -151 87 -85 142 -178 187 -313 32 -97 36 -118
41 -265 10 -237 -8 -501 -39 -591 -72 -209 -184 -345 -341 -415 -155 -69 -384
-63 -528 13 -72 38 -186 148 -240 229 -48 75 -92 208 -118 361 -18 105 -20
149 -16 303 6 207 31 338 89 466 56 125 160 248 251 297 27 15 59 33 71 39 12
7 32 13 46 14 14 0 43 6 65 14 56 18 171 18 252 -1z"/>
<path d="M4680 7265 c-19 -7 -47 -14 -61 -14 -15 -1 -51 -9 -80 -18 -46 -15
-70 -34 -164 -128 -63 -62 -119 -128 -130 -152 -38 -81 -48 -56 -61 153 l-6
111 -65 7 c-76 8 -107 -6 -116 -51 -21 -105 -15 -2018 6 -2040 12 -11 167 -17
177 -7 5 5 14 191 20 414 25 974 28 1037 55 1113 46 134 140 254 241 309 45
24 160 56 261 73 41 6 42 8 49 52 9 58 -1 159 -16 178 -15 18 -63 18 -110 0z"/>
<path d="M7406 7264 c-213 -39 -327 -102 -461 -256 -112 -128 -172 -371 -99
-398 37 -14 141 -12 151 2 4 7 19 49 34 94 31 90 83 184 127 229 51 52 145 95
253 116 125 24 191 24 303 -1 143 -32 217 -79 266 -171 59 -112 76 -256 40
-352 -52 -138 -183 -193 -560 -231 -86 -9 -171 -21 -190 -27 -19 -5 -63 -14
-96 -19 -98 -15 -216 -79 -300 -164 -125 -125 -160 -234 -152 -471 4 -126 6
-135 40 -206 39 -82 97 -163 143 -201 17 -14 62 -44 101 -67 93 -55 156 -64
393 -59 l186 3 105 53 c102 52 131 72 282 195 39 32 74 54 79 50 4 -4 12 -41
17 -81 14 -101 34 -130 116 -172 60 -30 79 -35 140 -35 39 0 87 4 107 8 36 7
36 8 42 71 9 93 4 104 -52 111 -70 9 -112 27 -135 58 -21 28 -21 38 -27 680
-4 359 -10 688 -14 732 -14 151 -51 230 -159 343 -89 94 -162 125 -379 162
-136 23 -190 24 -301 4z m598 -1081 l39 -6 -6 -176 c-4 -97 -12 -205 -17 -241
-16 -99 -76 -213 -152 -287 -85 -84 -104 -97 -195 -141 l-78 -37 -211 0 -212
0 -55 38 c-115 79 -177 188 -185 325 -4 70 -1 89 17 127 11 25 31 66 43 91 12
25 39 60 61 78 21 17 51 42 65 55 15 13 54 37 87 53 117 59 158 69 345 78 96
5 182 11 190 14 14 6 180 33 210 35 8 0 33 -2 54 -6z"/>
<path d="M9274 7260 c-84 -17 -166 -44 -222 -74 -13 -7 -75 -63 -137 -125 -63
-62 -120 -111 -127 -109 -9 3 -14 39 -18 127 -4 92 -9 124 -20 131 -8 5 -50
10 -92 10 l-78 0 0 -1045 0 -1045 93 0 94 0 6 98 c4 53 7 210 7 347 1 379 18
946 31 1022 21 118 65 198 173 312 115 120 245 158 475 139 105 -9 177 -35
237 -85 35 -29 75 -102 101 -183 24 -75 24 -78 33 -695 12 -798 17 -946 33
-957 11 -9 174 -5 182 4 2 2 5 348 6 768 2 995 -1 1014 -132 1167 -97 111
-261 187 -429 199 -41 3 -86 6 -100 8 -14 2 -66 -4 -116 -14z"/>
<path d="M8735 4923 c-11 -3 -26 -10 -32 -15 -10 -8 -13 -313 -13 -1464 l0
-1454 84 0 c65 0 87 4 97 17 11 13 15 93 17 400 l4 384 181 179 182 179 28
-27 c16 -15 40 -47 55 -72 14 -25 47 -78 74 -118 26 -41 48 -78 48 -84 0 -5
13 -29 30 -52 16 -24 80 -128 143 -232 63 -104 139 -229 169 -279 30 -49 74
-122 96 -162 23 -39 54 -85 68 -102 25 -30 29 -31 105 -31 76 0 80 1 89 25 16
43 1 79 -110 262 -419 694 -630 1047 -630 1053 0 7 128 148 320 355 268 288
351 387 336 402 -4 4 -53 9 -109 11 l-102 4 -85 -89 c-47 -48 -126 -131 -175
-183 -564 -601 -637 -678 -664 -698 l-29 -21 -7 57 c-4 31 -10 431 -14 889 -5
721 -8 834 -21 847 -16 16 -102 28 -135 19z"/>
<path d="M4503 4908 c-17 -22 -24 -445 -23 -1493 0 -951 8 -1397 25 -1413 3
-4 42 -9 85 -10 l78 -4 9 48 c4 27 8 680 8 1452 0 1378 0 1404 -19 1418 -25
18 -149 19 -163 2z"/>
<path d="M5610 4138 c-253 -35 -454 -192 -580 -452 -54 -113 -83 -210 -101
-336 -14 -105 -14 -520 0 -615 17 -115 58 -243 117 -362 45 -92 67 -124 127
-183 82 -83 173 -151 238 -178 24 -11 91 -30 149 -43 212 -48 457 -21 637 70
60 30 95 57 148 113 194 205 249 328 301 668 33 225 -2 588 -76 775 -75 190
-213 373 -328 436 -140 77 -195 93 -377 108 -136 12 -164 12 -255 -1z m355
-219 c132 -26 274 -154 356 -322 89 -181 109 -287 109 -567 0 -247 -36 -416
-120 -566 -79 -142 -195 -240 -345 -291 -67 -24 -96 -28 -180 -27 -281 2 -476
148 -590 442 -20 51 -40 125 -45 165 -12 92 -12 446 -1 557 10 95 55 235 102
319 65 116 193 238 289 276 80 31 300 38 425 14z"/>
<path d="M7445 4139 c-74 -11 -139 -32 -235 -77 -56 -27 -94 -54 -151 -111
-218 -217 -302 -467 -303 -901 0 -182 3 -222 27 -354 15 -82 39 -176 53 -210
14 -34 30 -74 36 -91 20 -56 109 -174 187 -247 88 -85 197 -143 331 -179 164
-44 425 -27 571 37 31 13 63 24 70 24 24 0 101 57 167 122 135 134 215 292
261 515 18 88 21 136 21 364 0 373 -18 476 -121 682 -45 90 -84 142 -175 233
-87 88 -148 123 -281 163 -120 36 -325 49 -458 30z m290 -214 c134 -11 209
-50 321 -165 29 -30 67 -78 84 -107 49 -81 100 -227 111 -317 12 -105 12 -478
-1 -582 -24 -217 -180 -456 -350 -541 -100 -50 -219 -77 -310 -70 -244 20
-405 135 -520 372 -60 125 -77 193 -91 371 -17 210 0 443 41 566 71 213 189
368 333 438 96 47 162 53 382 35z"/>
</g>
</svg>
