<?xml version="1.0" standalone="no"?>
<!DOCTYPE svg PUBLIC "-//W3C//DTD SVG 20010904//EN"
 "http://www.w3.org/TR/2001/REC-SVG-20010904/DTD/svg10.dtd">
<svg version="1.0" xmlns="http://www.w3.org/2000/svg"
 width="735.000000pt" height="1102.000000pt" viewBox="0 0 735.000000 1102.000000"
 preserveAspectRatio="xMidYMid meet">

<g transform="translate(0.000000,1102.000000) scale(0.100000,-0.100000)"
fill="#000000" stroke="none">
<path d="M3473 6191 c-34 -9 -65 -20 -69 -24 -4 -4 -18 -7 -31 -7 -12 0 -23
-4 -23 -8 0 -4 -15 -13 -34 -20 -18 -7 -43 -20 -54 -30 -11 -10 -33 -27 -48
-38 -45 -32 -89 -68 -96 -79 -26 -38 -36 -50 -65 -81 -17 -19 -40 -55 -50 -79
-10 -25 -21 -45 -25 -45 -5 0 -8 -8 -8 -18 0 -10 -4 -22 -8 -27 -35 -40 -51
-358 -23 -460 15 -55 80 -198 93 -203 4 -2 8 -8 8 -13 0 -6 10 -20 23 -33 12
-13 38 -44 57 -69 19 -26 39 -46 43 -47 5 0 27 -16 50 -35 22 -19 46 -35 53
-35 7 0 14 -3 16 -7 4 -11 83 -48 143 -69 74 -26 328 -31 415 -9 36 9 75 19
88 22 12 3 22 9 22 14 0 5 6 9 14 9 17 0 74 32 126 69 50 36 160 149 160 164
0 6 -7 25 -15 41 -8 15 -15 37 -15 47 0 28 -14 23 -47 -16 -17 -19 -34 -35
-39 -35 -5 0 -21 -11 -36 -24 -53 -50 -116 -71 -207 -70 -55 0 -86 5 -89 12
-2 7 -10 12 -18 12 -8 0 -14 5 -14 10 0 6 -6 10 -13 10 -18 0 -61 49 -81 91
-27 59 -36 158 -36 410 0 275 -3 293 -60 309 -19 5 -43 10 -52 10 -30 0 -48
12 -48 31 0 18 10 19 169 19 l169 0 6 -62 c3 -35 7 -191 10 -348 3 -204 8
-292 18 -311 44 -90 223 -80 336 18 l32 29 0 285 c0 284 0 286 -22 305 -13 11
-45 26 -73 33 -58 14 -59 15 -52 36 5 12 25 15 97 15 50 0 90 4 90 10 0 13
-155 170 -168 170 -7 0 -12 4 -12 8 0 7 -91 55 -175 93 -86 39 -322 50 -432
20z"/>
<path d="M4356 5904 c-3 -9 -6 -178 -6 -375 0 -460 4 -479 105 -487 l55 -4 0
40 c0 34 -4 41 -25 46 l-25 6 0 395 0 395 -49 0 c-35 0 -51 -4 -55 -16z"/>
</g>
</svg>
