<?xml version="1.0" standalone="no"?>
<!DOCTYPE svg PUBLIC "-//W3C//DTD SVG 20010904//EN"
 "http://www.w3.org/TR/2001/REC-SVG-20010904/DTD/svg10.dtd">
<svg version="1.0" xmlns="http://www.w3.org/2000/svg"
 width="1080.000000pt" height="1080.000000pt" viewBox="0 0 1080.000000 1080.000000"
 preserveAspectRatio="xMidYMid meet">

<g transform="translate(0.000000,1080.000000) scale(0.100000,-0.100000)"
fill="#000000" stroke="none">
<path d="M2360 7979 c-19 -5 -68 -17 -107 -25 -89 -18 -262 -86 -367 -145
-246 -138 -491 -390 -592 -609 -9 -19 -19 -37 -23 -40 -8 -6 -51 -122 -80
-215 -72 -229 -71 -582 0 -820 83 -274 260 -538 484 -718 61 -48 126 -96 145
-106 19 -10 61 -33 94 -51 32 -18 86 -42 120 -54 33 -12 71 -27 83 -34 27 -15
127 -38 223 -52 41 -6 169 -11 284 -11 182 -1 220 2 300 21 177 43 339 110
476 198 109 69 280 226 354 325 l29 37 -27 59 c-14 32 -26 71 -26 87 0 16 -4
36 -10 44 -7 12 -15 9 -44 -15 -19 -17 -65 -56 -103 -89 -123 -105 -197 -152
-290 -182 -77 -26 -102 -29 -208 -29 -116 1 -122 2 -195 36 -79 37 -183 124
-220 184 -11 18 -32 66 -46 107 -22 66 -26 98 -35 318 -5 135 -13 403 -17 595
-9 400 -10 402 -88 437 -25 11 -85 25 -135 31 l-89 11 0 43 0 43 303 -1 c166
0 322 -4 347 -7 l45 -7 7 -600 c4 -330 12 -637 17 -683 15 -118 46 -173 120
-210 51 -25 66 -27 171 -27 l115 0 105 52 c72 35 126 71 171 112 l66 60 5 228
c3 125 2 373 -1 550 l-7 323 -37 38 c-40 41 -99 64 -192 77 -60 8 -75 19 -75
55 0 27 1 27 77 34 42 3 127 6 190 6 114 0 114 0 107 23 -19 60 -230 270 -360
358 -96 65 -231 133 -313 159 -36 12 -74 25 -83 30 -9 5 -59 19 -110 30 -73
17 -138 22 -308 25 -129 3 -229 0 -250 -6z"/>
<path d="M4803 7873 l-33 -4 0 -1095 0 -1094 64 0 c90 0 96 8 96 125 0 52 4
96 8 99 5 3 50 -34 100 -82 64 -61 115 -99 169 -127 l78 -40 200 0 c170 0 208
3 255 19 146 50 306 200 389 364 12 23 33 92 46 152 34 148 36 390 4 543 -40
197 -152 366 -309 470 -80 52 -165 77 -304 88 -141 12 -240 0 -331 -38 -72
-30 -128 -73 -217 -167 -37 -39 -70 -67 -75 -62 -4 4 -9 194 -11 422 -2 315
-6 416 -15 419 -25 7 -83 12 -114 8z m833 -754 c83 -25 123 -48 188 -109 67
-61 119 -145 151 -240 26 -79 27 -82 23 -328 -2 -157 -7 -254 -14 -263 -6 -8
-16 -33 -23 -56 -6 -23 -34 -76 -62 -117 -38 -58 -65 -85 -118 -121 -38 -25
-87 -52 -110 -59 -104 -37 -288 -38 -389 -2 -105 38 -227 150 -277 253 -48
101 -67 196 -72 363 -4 131 -2 170 16 252 61 292 270 468 537 453 45 -3 113
-14 150 -26z"/>
<path d="M4534 7285 c-56 -12 -115 -30 -130 -40 -44 -28 -172 -155 -196 -194
-20 -31 -22 -32 -29 -14 -4 11 -10 65 -14 121 l-7 100 -52 4 c-75 6 -93 -3
-102 -54 -4 -24 -8 -371 -7 -772 0 -835 -11 -756 99 -756 35 0 65 3 67 8 3 4
10 212 17 462 15 598 18 642 58 723 39 78 113 157 178 190 27 13 87 32 134 41
47 9 95 19 106 21 40 9 39 161 -1 175 -11 4 -66 -3 -121 -15z"/>
<path d="M6805 7283 c-149 -31 -273 -102 -352 -201 -66 -82 -110 -227 -81
-264 12 -16 59 -24 120 -20 23 2 29 9 43 55 66 202 196 287 445 290 228 3 352
-71 396 -235 20 -77 17 -117 -12 -176 -52 -104 -138 -135 -468 -167 -87 -9
-163 -18 -167 -21 -5 -3 -36 -10 -70 -15 -101 -16 -196 -68 -271 -148 -74 -78
-96 -128 -105 -237 -10 -120 3 -194 46 -265 54 -90 111 -141 204 -185 l82 -39
195 0 195 0 81 37 c77 35 175 95 255 159 20 16 42 29 47 29 6 0 14 -17 17 -37
3 -21 8 -48 11 -60 8 -39 53 -81 112 -103 47 -18 70 -21 130 -16 41 3 78 8 83
12 5 3 9 32 9 64 l0 59 -37 6 c-21 3 -56 11 -78 18 -63 19 -64 26 -65 487 -1
443 -11 636 -36 714 -13 39 -35 69 -93 127 -65 65 -85 79 -141 97 -154 50
-358 65 -495 35z m580 -935 c-9 -166 -18 -219 -52 -285 -38 -77 -136 -166
-230 -211 l-78 -37 -185 0 c-207 0 -203 -1 -288 79 -58 54 -84 107 -90 183 -8
102 39 193 132 256 128 87 194 106 396 117 91 5 183 14 205 19 22 5 75 9 119
10 l78 1 -7 -132z"/>
<path d="M8395 7287 c-123 -27 -180 -55 -262 -131 -43 -40 -89 -80 -103 -89
l-25 -18 -10 103 -10 103 -72 3 -73 3 0 -786 0 -785 80 0 80 0 0 113 c2 346
20 938 31 987 16 77 48 135 113 207 102 112 243 156 431 134 157 -18 230 -68
278 -189 17 -43 20 -98 31 -645 10 -499 15 -600 27 -608 16 -10 68 -11 122 -3
l37 7 0 566 c0 602 -6 702 -45 788 -47 104 -161 189 -305 229 -77 21 -251 26
-325 11z"/>
<path d="M4465 5530 l-40 -5 -8 -155 c-4 -85 -7 -572 -5 -1081 2 -767 5 -929
17 -942 10 -13 30 -17 77 -17 l63 0 7 48 c4 26 8 513 8 1083 1 829 -2 1039
-12 1051 -15 19 -52 25 -107 18z"/>
<path d="M7960 5531 l-25 -7 -3 -1097 -2 -1098 77 3 78 3 7 50 c3 28 7 163 7
300 l2 250 150 134 150 133 26 -23 c23 -22 80 -101 143 -200 14 -21 88 -131
165 -245 77 -113 169 -249 205 -302 l65 -97 75 0 75 0 3 33 c4 40 12 27 -286
467 -123 181 -248 369 -278 417 l-55 88 266 262 c249 244 294 293 282 304 -2
3 -42 7 -89 11 l-84 6 -253 -244 c-340 -327 -534 -509 -542 -509 -13 0 -19
205 -19 690 0 279 -3 541 -6 583 l-7 77 -36 10 c-40 11 -54 11 -91 1z"/>
<path d="M5278 4930 c-221 -56 -383 -213 -463 -451 -53 -156 -54 -551 -1 -705
61 -179 143 -288 289 -383 75 -49 155 -73 299 -91 188 -24 416 28 541 124 49
37 156 161 183 212 11 22 26 48 32 59 6 11 23 72 39 135 25 104 28 132 28 285
-1 197 -19 308 -67 419 -70 158 -179 284 -294 340 -104 51 -180 66 -359 71
-127 4 -162 2 -227 -15z m456 -179 c99 -49 173 -127 230 -243 59 -121 76 -208
76 -391 0 -241 -53 -400 -175 -523 -101 -102 -261 -163 -395 -150 -219 22
-354 113 -445 299 -58 120 -70 200 -62 437 6 184 19 246 75 357 29 56 121 154
182 193 78 50 126 60 295 57 149 -2 151 -2 219 -36z"/>
<path d="M6840 4936 c-126 -27 -227 -80 -307 -163 -98 -100 -152 -197 -190
-342 -23 -86 -26 -116 -27 -291 -1 -165 2 -210 20 -291 76 -340 296 -529 644
-555 138 -10 365 37 462 96 51 31 159 141 200 205 23 35 54 106 76 175 l37
115 0 230 c-1 175 -5 247 -17 301 -34 149 -152 334 -266 418 -59 43 -149 78
-255 100 -90 19 -296 20 -377 2z m395 -169 c70 -23 167 -97 220 -168 24 -32
58 -96 76 -142 32 -81 33 -85 37 -282 3 -124 0 -229 -7 -275 -24 -154 -139
-324 -263 -389 -137 -72 -269 -85 -427 -41 -174 49 -311 209 -358 420 -22 102
-22 377 1 473 45 190 175 351 329 408 45 17 72 19 197 15 94 -2 163 -9 195
-19z"/>
</g>
</svg>
