<?xml version="1.0" standalone="no"?>
<!DOCTYPE svg PUBLIC "-//W3C//DTD SVG 20010904//EN"
 "http://www.w3.org/TR/2001/REC-SVG-20010904/DTD/svg10.dtd">
<svg version="1.0" xmlns="http://www.w3.org/2000/svg"
 width="675.000000pt" height="675.000000pt" viewBox="0 0 675.000000 675.000000"
 preserveAspectRatio="xMidYMid meet">
<metadata>
Created by potrace 1.10, written by Peter Selinger 2001-2011
</metadata>
<g transform="translate(0.000000,675.000000) scale(0.100000,-0.100000)"
fill="#000000" stroke="none">
<path d="M1115 5173 c-22 -2 -44 -9 -49 -14 -6 -5 -26 -9 -45 -9 -20 0 -49 -7
-65 -15 -15 -8 -33 -15 -38 -15 -6 0 -24 -6 -41 -14 -18 -8 -54 -24 -82 -36
-91 -40 -219 -132 -300 -215 -82 -85 -175 -207 -175 -232 0 -7 -4 -13 -9 -13
-5 0 -12 -13 -16 -30 -4 -16 -11 -30 -16 -30 -5 0 -9 -6 -9 -12 -1 -7 -9 -31
-20 -53 -11 -22 -19 -49 -20 -61 0 -11 -4 -24 -9 -30 -12 -12 -29 -100 -42
-229 -8 -71 -7 -124 1 -185 20 -155 29 -203 39 -213 6 -6 11 -22 11 -35 0 -13
6 -36 14 -50 7 -15 28 -58 47 -97 42 -87 78 -143 143 -219 70 -82 96 -107 191
-179 5 -4 21 -16 34 -27 13 -11 30 -20 37 -20 7 0 14 -4 16 -8 5 -12 147 -82
167 -82 9 0 21 -4 26 -9 6 -6 29 -15 53 -20 23 -6 59 -15 80 -20 106 -27 477
-19 507 10 5 5 20 9 35 9 14 0 38 7 54 15 15 8 33 15 40 15 9 0 84 36 166 81
84 46 243 186 296 261 l25 36 -20 43 c-12 23 -21 57 -21 74 0 18 -3 34 -6 38
-4 3 -30 -17 -58 -45 -50 -49 -188 -158 -201 -158 -4 0 -21 -6 -38 -14 -86
-39 -195 -49 -282 -26 -60 16 -145 70 -180 113 -14 18 -30 37 -35 44 -13 16
-37 77 -51 133 -8 29 -14 196 -18 480 -6 414 -7 436 -26 462 -24 33 -96 58
-164 58 l-51 0 0 35 0 35 259 0 c227 0 260 -2 265 -16 3 -9 6 -219 6 -467 0
-249 5 -480 10 -515 9 -65 45 -128 79 -139 9 -2 28 -11 43 -19 36 -19 150 -18
196 2 74 32 127 58 132 63 3 3 28 24 55 46 28 21 53 44 57 50 11 15 10 800 -2
827 -24 60 -81 89 -190 100 -31 3 -35 6 -35 33 l0 30 135 3 c74 1 141 4 148 7
27 10 -145 193 -255 272 -85 60 -251 143 -290 143 -10 0 -27 7 -37 15 -11 8
-36 15 -56 15 -20 0 -41 5 -47 11 -11 11 -295 21 -368 12z"/>
<path d="M2900 5078 c-3 -270 1 -1643 5 -1646 7 -7 105 -6 112 1 3 4 5 42 4
86 -1 44 2 82 7 85 5 3 35 -24 67 -60 32 -36 67 -70 79 -75 11 -5 28 -13 36
-18 81 -46 81 -46 230 -46 161 0 200 9 297 73 59 38 139 128 167 187 10 22 23
49 29 60 6 11 14 38 18 60 4 22 12 60 18 85 6 25 10 95 10 155 0 61 -4 130
-10 155 -6 25 -14 63 -18 85 -4 22 -12 49 -18 60 -5 11 -18 38 -29 60 -44 93
-154 199 -244 234 -111 43 -332 45 -397 5 -12 -8 -27 -14 -33 -14 -20 0 -105
-71 -150 -125 -24 -29 -48 -51 -52 -48 -5 2 -8 145 -8 316 0 172 1 318 0 325
0 8 -19 12 -60 12 -41 0 -60 -4 -60 -12z m630 -552 c77 -20 117 -42 175 -100
51 -51 77 -96 109 -193 15 -44 17 -81 14 -232 -2 -127 -7 -184 -15 -193 -7 -6
-13 -20 -13 -30 0 -26 -54 -122 -90 -159 -8 -8 -40 -31 -70 -51 -104 -66 -282
-73 -393 -15 -56 29 -132 104 -161 158 -42 80 -66 196 -66 316 0 60 5 126 11
148 6 22 14 57 18 78 5 21 14 44 20 50 6 6 11 17 11 25 0 32 121 162 151 162
9 0 22 7 29 15 7 8 24 15 39 16 14 0 35 4 46 9 30 13 123 11 185 -4z"/>
<path d="M2755 4650 c-11 -5 -32 -9 -47 -9 -15 -1 -44 -9 -65 -18 -46 -21
-149 -122 -164 -159 -16 -44 -28 -16 -31 76 l-3 85 -50 3 c-38 3 -52 -1 -62
-14 -10 -14 -13 -140 -13 -588 0 -314 4 -577 9 -585 9 -14 105 -20 119 -7 4 4
10 182 13 394 3 213 10 407 16 432 24 105 107 204 195 232 18 5 62 15 98 21
l65 12 3 44 c5 69 -4 91 -36 90 -15 0 -36 -4 -47 -9z"/>
<path d="M4455 4648 c-61 -10 -111 -26 -175 -56 -45 -22 -150 -127 -150 -150
0 -10 -6 -26 -14 -37 -19 -29 -27 -112 -11 -125 8 -6 35 -10 61 -8 l47 3 19
60 c22 66 76 140 111 151 12 3 29 12 37 19 18 14 131 35 191 35 56 -1 157 -22
188 -41 29 -17 61 -46 61 -56 0 -3 6 -14 13 -22 8 -9 20 -42 27 -73 11 -47 11
-66 0 -100 -28 -94 -110 -129 -345 -147 -66 -5 -133 -14 -148 -20 -16 -6 -43
-11 -61 -11 -18 0 -41 -7 -52 -15 -10 -8 -25 -15 -33 -15 -16 0 -88 -54 -119
-89 -51 -59 -67 -110 -66 -213 0 -75 5 -105 20 -135 28 -56 81 -120 112 -137
113 -60 110 -60 257 -60 116 -1 148 2 185 18 81 34 113 51 138 74 14 12 29 22
33 22 4 0 25 15 45 34 21 19 42 33 46 30 4 -3 8 -21 8 -41 0 -59 31 -98 96
-118 44 -14 67 -16 107 -9 l52 9 3 48 c2 26 -1 47 -5 48 -74 5 -100 13 -115
32 -16 20 -18 58 -18 421 0 476 0 475 -95 571 -67 66 -94 78 -225 100 -95 16
-138 16 -225 3z m408 -713 c-2 -147 -12 -185 -67 -267 -18 -27 -118 -108 -134
-108 -5 0 -24 -8 -43 -17 -27 -14 -61 -18 -165 -18 -126 0 -132 1 -173 28 -58
38 -81 67 -103 129 -18 52 -16 112 3 124 5 3 9 12 9 21 0 21 58 93 76 93 8 0
14 4 14 9 0 5 19 18 43 29 100 46 126 52 240 52 70 0 129 6 157 15 25 8 68 13
95 12 l50 -2 -2 -100z"/>
<path d="M5625 4647 c-33 -7 -70 -18 -82 -25 -12 -6 -29 -12 -38 -12 -8 0 -50
-34 -91 -75 -42 -41 -81 -72 -86 -69 -5 3 -8 37 -6 75 1 40 -2 73 -8 79 -6 6
-33 10 -60 8 l-49 -3 0 -595 0 -595 60 0 60 0 5 410 c6 429 6 428 52 517 19
36 110 128 127 128 8 0 22 6 30 14 9 7 46 18 83 24 77 12 213 -2 239 -24 8 -8
20 -14 26 -14 17 0 73 -75 73 -97 0 -10 6 -25 13 -31 9 -10 13 -120 15 -464 1
-249 7 -457 12 -463 5 -6 31 -8 67 -5 l58 5 3 445 c3 464 -1 525 -40 601 -65
127 -275 202 -463 166z"/>
<path d="M2642 3308 c-18 -18 -18 -1647 1 -1652 30 -10 96 -13 108 -6 10 7 13
158 14 812 0 442 -2 814 -5 828 -6 22 -12 25 -56 28 -30 2 -54 -2 -62 -10z"/>
<path d="M5275 3308 c-3 -7 -4 -384 -3 -837 l3 -825 53 0 c41 -1 56 3 63 16 5
9 9 113 9 232 l0 215 26 20 c15 12 65 57 111 101 46 44 88 80 92 80 9 0 61
-64 61 -75 0 -4 14 -24 30 -45 17 -21 30 -41 30 -45 0 -4 13 -24 29 -44 15
-20 30 -40 32 -46 2 -5 27 -43 54 -83 28 -41 55 -81 60 -90 6 -9 22 -33 38
-53 15 -20 27 -39 27 -42 0 -6 68 -107 85 -127 9 -10 31 -15 67 -14 50 0 53 2
56 28 2 15 -3 35 -11 44 -8 10 -16 22 -18 27 -2 6 -53 84 -114 173 -60 90
-115 171 -120 180 -6 9 -46 70 -90 135 -44 66 -88 133 -98 150 l-19 31 212
207 c129 124 210 211 206 218 -4 6 -34 11 -72 11 l-65 0 -72 -67 c-40 -37
-172 -165 -295 -285 -123 -120 -227 -218 -232 -218 -6 0 -10 192 -10 508 0
382 -3 511 -12 520 -16 16 -107 16 -113 0z"/>
<path d="M3335 2871 c-111 -16 -192 -56 -271 -135 -66 -66 -116 -158 -142
-261 -21 -80 -23 -369 -3 -440 25 -90 63 -175 105 -231 36 -47 134 -123 186
-142 52 -20 178 -42 239 -42 89 0 217 29 271 61 8 5 24 13 36 18 30 14 164
160 164 181 0 10 7 23 15 30 8 7 15 19 15 27 0 9 6 36 14 62 38 122 45 247 22
402 -15 102 -21 121 -69 218 -34 68 -147 191 -176 191 -9 0 -22 5 -28 11 -39
39 -257 68 -378 50z m295 -147 c98 -49 176 -156 210 -289 17 -69 24 -250 12
-310 -30 -141 -40 -165 -98 -246 -57 -78 -153 -130 -269 -144 -57 -8 -184 16
-215 39 -8 6 -31 19 -51 29 -37 19 -92 86 -121 147 -51 109 -52 115 -52 294 0
149 3 179 21 231 34 94 53 126 109 182 83 83 147 104 299 98 85 -3 109 -8 155
-31z"/>
<path d="M4485 2870 c-57 -8 -87 -18 -165 -52 -19 -9 -62 -43 -95 -75 -99 -97
-147 -211 -164 -389 -7 -73 -7 -144 0 -210 9 -96 43 -229 60 -240 5 -3 9 -12
9 -21 0 -19 71 -107 120 -149 80 -70 218 -114 351 -114 69 0 208 25 222 39 6
6 21 11 33 11 12 0 27 7 34 15 7 8 18 15 24 15 6 0 19 8 27 18 9 11 25 25 35
33 28 20 96 113 110 149 53 139 59 172 58 350 0 184 -11 242 -64 355 -35 76
-129 178 -190 209 -109 54 -266 76 -405 56z m288 -140 c26 -11 47 -25 47 -30
0 -6 6 -10 14 -10 17 0 90 -80 112 -124 51 -101 59 -145 59 -316 0 -171 -8
-215 -60 -317 -23 -45 -102 -131 -128 -139 -12 -3 -29 -12 -37 -19 -8 -7 -49
-21 -91 -30 -77 -18 -106 -17 -224 11 -48 11 -132 72 -168 122 -78 108 -102
195 -102 372 0 147 10 199 56 295 53 109 145 187 244 206 73 14 225 3 278 -21z"/>
</g>
</svg>
